<?xml version="1.0" standalone="no"?>
<!DOCTYPE svg PUBLIC "-//W3C//DTD SVG 1.1//EN" "http://www.w3.org/Graphics/SVG/1.1/DTD/svg11.dtd">
<!--Generator: Xara Designer (www.xara.com), SVG filter version: 6.4.0.3-->
<svg fill="none" fill-rule="evenodd" stroke="black" stroke-width="0.501" stroke-linejoin="bevel" stroke-miterlimit="10" font-family="Times New Roman" font-size="16" style="font-variant-ligatures:none" xmlns:xlink="http://www.w3.org/1999/xlink" xmlns="http://www.w3.org/2000/svg" version="1.1" overflow="visible" width="383.998pt" height="383.998pt" viewBox="408.429 -1408.18 383.998 383.998">
 <defs>
	</defs>
 <g id="Layer 1" transform="scale(1 -1)">
  <g id="Group">
   <path d="M 464.643,1080.39 C 389.691,1155.35 389.691,1277.01 464.643,1351.96 C 539.596,1426.92 661.26,1426.92 736.213,1351.96 C 811.165,1277.01 811.165,1155.35 736.213,1080.39 C 661.26,1005.44 539.596,1005.44 464.643,1080.39 Z" fill="#7e57c2" stroke-width="0" stroke="none" stroke-linejoin="miter" marker-start="none" marker-end="none"/>
   <g id="Group_1">
    <g id="Group_2">
     <g id="Group_3">
      <path d="M 467.79,1077.32 L 467.791,1077.4 L 467.791,1078.13 C 467.791,1095.29 479.097,1110.4 495.562,1115.25 L 549.841,1131.21 C 556.898,1133.28 561.743,1139.76 561.743,1147.12 L 561.743,1173.4 L 639.116,1173.4 L 639.116,1147.12 C 639.116,1139.76 643.962,1133.29 651.018,1131.21 L 705.298,1115.25 C 721.762,1110.4 733.069,1095.29 733.067,1078.13 L 733.067,1077.4 L 733.067,1077.32 C 658.948,1006.47 541.907,1006.47 467.79,1077.32 Z" fill="#b67f5f" stroke-width="0" stroke="none" stroke-linejoin="miter" fill-rule="nonzero" marker-start="none" marker-end="none"/>
      <path d="M 639.117,1028.13 L 639.117,1145.76 L 639.227,1145.76 C 639.785,1138.99 644.403,1133.16 651.018,1131.21 L 705.298,1115.25 C 721.762,1110.4 733.069,1095.29 733.069,1078.13 L 733.069,1077.41 L 733.069,1077.32 C 706.066,1051.51 673.363,1035.1 639.117,1028.09 L 639.117,1028.13 Z" fill="#6e5a64" stroke-width="0" stroke="none" stroke-linejoin="miter" fill-rule="nonzero" marker-start="none" marker-end="none"/>
      <path d="M 639.117,1028.13 L 639.117,1147.12 C 650.344,1146.2 659.037,1138.3 663.479,1133.3 C 665.613,1130.89 666.532,1127.66 666.077,1124.48 L 662.147,1096.98 C 661.576,1092.98 663.229,1088.99 666.457,1086.57 L 677.622,1078.2 C 681.098,1075.59 682.724,1071.19 681.781,1066.96 L 675.686,1039.53 L 675.672,1039.47 C 663.823,1034.43 651.57,1030.64 639.117,1028.09 L 639.117,1028.13 Z" fill="#5a4650" stroke-width="0" stroke="none" stroke-linejoin="miter" fill-rule="nonzero" marker-start="none" marker-end="none"/>
      <path d="M 467.79,1077.32 L 467.791,1077.4 L 467.791,1078.13 C 467.791,1095.29 479.097,1110.4 495.562,1115.25 L 549.841,1131.21 C 556.457,1133.16 561.075,1138.99 561.631,1145.76 L 561.743,1145.76 L 561.743,1028.13 L 561.742,1028.09 C 527.495,1035.1 494.794,1051.5 467.79,1077.32 Z" fill="#6e5a64" stroke-width="0" stroke="none" stroke-linejoin="miter" fill-rule="nonzero" marker-start="none" marker-end="none"/>
      <path d="M 525.186,1039.47 L 525.172,1039.53 L 519.078,1066.96 C 518.135,1071.19 519.763,1075.59 523.236,1078.2 L 534.402,1086.57 C 537.631,1088.99 539.283,1092.98 538.711,1096.98 L 534.783,1124.48 C 534.328,1127.66 535.246,1130.89 537.38,1133.3 C 541.823,1138.3 550.514,1146.2 561.743,1147.12 L 561.743,1028.13 L 561.742,1028.09 C 549.285,1030.64 537.032,1034.43 525.186,1039.47 Z" fill="#5a4650" stroke-width="0" stroke="none" stroke-linejoin="miter" fill-rule="nonzero" marker-start="none" marker-end="none"/>
      <path d="M 561.742,1028.09 L 561.743,1028.13 L 561.743,1104.4 C 572.254,1095.71 585.733,1090.5 600.43,1090.5 C 615.126,1090.5 628.605,1095.71 639.116,1104.4 L 639.116,1028.13 L 639.116,1028.09 C 613.608,1022.88 587.247,1022.88 561.742,1028.09 Z" fill="#bf00bd" stroke-width="0" stroke="none" stroke-linejoin="miter" fill-rule="nonzero" marker-start="none" marker-end="none"/>
      <path d="M 561.743,1090.85 L 561.743,1120.1 C 570.869,1108.8 584.81,1101.55 600.43,1101.55 C 616.048,1101.55 629.99,1108.8 639.117,1120.1 L 639.117,1090.85 C 627.935,1083.66 614.677,1079.44 600.43,1079.44 C 586.181,1079.44 572.924,1083.66 561.743,1090.85 Z" fill="#7f007e" stroke-width="0" stroke="none" stroke-linejoin="miter" fill-rule="nonzero" marker-start="none" marker-end="none"/>
     </g>
     <path d="M 480.529,1272.83 C 480.529,1325.51 523.229,1368.21 575.905,1368.21 L 624.955,1368.21 C 677.632,1368.21 720.334,1325.51 720.334,1272.83 C 720.336,1220.16 677.632,1177.45 624.957,1177.45 L 575.905,1177.45 C 523.23,1177.45 480.529,1220.16 480.529,1272.83 Z" fill="#5a4650" stroke-width="0.672" stroke="none" stroke-linejoin="miter" fill-rule="nonzero" marker-start="none" marker-end="none"/>
     <path d="M 520.344,1216.67 L 513.508,1261.1 C 506.797,1304.71 540.539,1344.04 584.663,1344.04 L 616.198,1344.04 C 660.323,1344.04 694.065,1304.71 687.357,1261.1 L 680.521,1216.67 L 520.344,1216.67 Z" fill="#5a4650" stroke-width="0" stroke="none" stroke-linejoin="miter" fill-rule="nonzero" marker-start="none" marker-end="none"/>
     <path d="M 561.666,1143.39 L 561.666,1155.75 L 639.198,1155.75 L 639.198,1143.39 C 627.563,1137.18 614.37,1133.6 600.433,1133.6 C 586.496,1133.6 573.299,1137.18 561.666,1143.39 Z" fill="#a06e50" stroke-width="0" stroke="none" stroke-linejoin="miter" fill-rule="nonzero" marker-start="none" marker-end="none"/>
     <path d="M 528.717,1211.13 L 525.668,1211.13 C 516.829,1211.13 509.855,1219.53 512.326,1228.74 C 513.961,1234.83 519.848,1238.82 526.154,1238.82 L 526.392,1238.82 C 533.127,1238.82 538.128,1245.06 536.668,1251.63 C 532.444,1270.64 546.905,1288.66 566.375,1288.66 L 634.488,1288.66 C 653.958,1288.66 668.42,1270.64 664.195,1251.63 C 662.734,1245.06 667.738,1238.82 674.471,1238.82 L 674.709,1238.82 C 681.014,1238.82 686.904,1234.83 688.538,1228.74 C 691.008,1219.53 684.034,1211.13 675.195,1211.13 L 672.146,1211.13 C 669.31,1173.96 638.325,1144.67 600.433,1144.67 C 562.541,1144.67 531.553,1173.96 528.717,1211.13 Z" fill="#cd916e" stroke-width="0" stroke="none" stroke-linejoin="miter" fill-rule="nonzero" marker-start="none" marker-end="none"/>
     <path d="M 528.717,1211.13 L 525.668,1211.13 C 516.829,1211.13 509.856,1219.52 512.327,1228.74 C 513.961,1234.83 519.848,1238.82 526.154,1238.82 L 526.392,1238.82 C 533.11,1238.82 538.143,1245.03 536.676,1251.59 C 532.422,1270.61 546.891,1288.66 566.375,1288.66 L 633.658,1288.66 C 633.659,1282.55 628.701,1277.59 622.583,1277.59 L 578.278,1277.59 C 562.986,1277.59 550.59,1265.19 550.59,1249.9 L 550.59,1216.67 C 550.59,1180.67 577.037,1150.93 611.542,1145.61 C 607.914,1145.04 604.22,1144.67 600.433,1144.67 C 562.541,1144.67 531.553,1173.96 528.717,1211.13 Z" fill="#b67f5f" stroke-width="0" stroke="none" stroke-linejoin="miter" fill-rule="nonzero" marker-start="none" marker-end="none"/>
     <path d="M 561.666,1227.75 L 561.666,1233.28 C 561.666,1236.35 564.143,1238.82 567.203,1238.82 C 570.263,1238.82 572.741,1236.34 572.741,1233.28 L 572.741,1227.75 C 572.741,1224.68 570.264,1222.21 567.203,1222.21 C 564.141,1222.21 561.666,1224.68 561.666,1227.75 Z" fill="#5a4650" stroke-width="0" stroke="none" stroke-linejoin="miter" fill-rule="nonzero" marker-start="none" marker-end="none"/>
     <path d="M 628.122,1227.75 L 628.122,1233.28 C 628.122,1236.35 630.599,1238.82 633.659,1238.82 C 636.72,1238.82 639.198,1236.34 639.198,1233.28 L 639.198,1227.75 C 639.198,1224.68 636.72,1222.21 633.659,1222.21 C 630.599,1222.21 628.122,1224.68 628.122,1227.75 Z" fill="#5a4650" stroke-width="0" stroke="none" stroke-linejoin="miter" fill-rule="nonzero" marker-start="none" marker-end="none"/>
     <path d="M 579.928,1190.57 C 577.75,1192.73 577.728,1196.23 579.873,1198.41 C 582.032,1200.59 585.537,1200.61 587.705,1198.46 C 589.549,1196.64 593.984,1194.52 600.432,1194.52 C 606.877,1194.52 611.312,1196.64 613.157,1198.46 C 615.324,1200.61 618.83,1200.59 620.987,1198.41 C 623.134,1196.23 623.112,1192.73 620.934,1190.57 C 616.408,1186.11 608.744,1183.44 600.432,1183.44 C 592.118,1183.44 584.456,1186.11 579.928,1190.57 Z" fill="#a06e50" stroke-width="0" stroke="none" stroke-linejoin="miter" fill-rule="nonzero" marker-start="none" marker-end="none"/>
     <path d="M 556.127,1249.9 C 556.127,1252.96 558.604,1255.43 561.666,1255.43 L 572.741,1255.43 C 575.803,1255.43 578.279,1252.96 578.279,1249.9 C 578.279,1246.84 575.803,1244.36 572.741,1244.36 L 561.666,1244.36 C 558.604,1244.36 556.127,1246.84 556.127,1249.9 Z" fill="#64505a" stroke-width="0" stroke="none" stroke-linejoin="miter" fill-rule="nonzero" marker-start="none" marker-end="none"/>
     <path d="M 622.583,1249.9 C 622.583,1252.96 625.061,1255.43 628.122,1255.43 L 639.198,1255.43 C 642.258,1255.43 644.735,1252.96 644.735,1249.9 C 644.735,1246.84 642.258,1244.36 639.198,1244.36 L 628.122,1244.36 C 625.061,1244.36 622.583,1246.84 622.583,1249.9 Z" fill="#64505a" stroke-width="0" stroke="none" stroke-linejoin="miter" fill-rule="nonzero" marker-start="none" marker-end="none"/>
     <path d="M 553.739,1360.56 L 553.739,1365.36 C 561.521,1367.35 569.647,1368.5 578.081,1368.5 L 622.047,1368.5 C 664.296,1368.5 699.714,1341.89 714.726,1304.97 L 607.784,1304.97 C 577.938,1304.97 553.739,1329.86 553.739,1360.56 Z" fill="#64505a" stroke-width="0.963" stroke="none" stroke-linejoin="miter" fill-rule="nonzero" marker-start="none" marker-end="none"/>
    </g>
    <path d="M 482.567,1064.55 L 494.15,1064.55 L 494.15,1056.21 L 494.149,1056.2 C 490.209,1058.83 486.344,1061.61 482.567,1064.55 Z" fill="#6e5a64" stroke-width="0" stroke="none" stroke-linejoin="miter" marker-start="none" marker-end="none"/>
    <path d="M 706.707,1056.21 L 706.707,1064.55 L 718.288,1064.55 C 714.511,1061.61 710.646,1058.83 706.707,1056.2 L 706.707,1056.21 Z" fill="#6e5a64" stroke-width="0" stroke="none" stroke-linejoin="miter" marker-start="none" marker-end="none"/>
   </g>
  </g>
 </g>
</svg>
