<?xml version="1.0" standalone="no"?>
<!DOCTYPE svg PUBLIC "-//W3C//DTD SVG 1.1//EN" "http://www.w3.org/Graphics/SVG/1.1/DTD/svg11.dtd">
<!--Generator: Xara Designer (www.xara.com), SVG filter version: 6.4.0.3-->
<svg fill="none" fill-rule="evenodd" stroke="black" stroke-width="0.501" stroke-linejoin="bevel" stroke-miterlimit="10" font-family="Times New Roman" font-size="16" style="font-variant-ligatures:none" xmlns:xlink="http://www.w3.org/1999/xlink" xmlns="http://www.w3.org/2000/svg" version="1.1" overflow="visible" width="384.002pt" height="384pt" viewBox="183.021 -705.772 384.002 384">
 <defs>
	</defs>
 <g id="Layer 1" transform="scale(1 -1)">
  <g id="Group" stroke="none">
   <path d="M 375.004,705.772 L 375.04,705.772 M 567.023,513.789 L 567.023,513.753 M 375.04,321.772 L 375.004,321.772 M 183.021,513.753 L 183.021,513.789"/>
   <path d="M 364.735,322.044 C 358.975,322.329 352.522,322.974 343.605,324.525 C 335.29,325.708 327.219,327.599 319.411,330 C 318.542,330.215 317.686,330.48 317.651,330.614 C 309.942,332.93 302.483,335.81 295.439,339.214 C 293.241,339.967 291.126,340.976 291.606,340.993 C 283.885,344.602 276.507,348.821 269.447,353.499 L 269.278,353.444 L 269.273,353.443 C 258.655,360.459 248.583,368.639 239.237,377.986 C 231.644,385.578 224.821,393.648 218.975,402.202 C 208.235,416.994 199.642,433.426 193.719,451.1 C 192.72,453.307 191.985,455.583 191.853,456.435 C 190.995,458.862 190.269,461.347 189.998,462.889 C 188.718,467.006 187.725,471.18 186.873,475.379 C 186.481,477.307 186.117,479.251 186.179,479.557 C 185.332,483.677 184.724,487.829 184.458,491.481 C 184.079,493.439 183.876,495.449 183.842,496.582 C 183.465,500.187 183.245,503.802 183.19,505.672 C 183.057,509.526 183.023,511.645 183.023,513.772 C 183.023,520.182 183.337,526.521 183.984,532.765 C 184.506,538.334 185.298,543.884 186.33,549.387 C 186.513,550.354 186.701,551.312 186.783,551.469 C 186.597,550.783 186.464,550.092 186.341,549.434 C 187.636,556.317 189.312,563.112 191.427,569.884 C 192.055,572.181 192.794,574.454 193.505,575.83 C 194.737,580.008 196.277,584.044 197.902,587.824 C 198.536,589.57 199.279,591.28 199.707,591.719 C 201.598,596.306 203.783,600.73 206.116,605.009 C 206.589,606.089 207.16,607.125 207.036,606.565 C 224.379,637.99 250.313,664.011 281.683,681.436 C 282.817,682.269 284.027,682.925 283.846,682.713 C 287.978,684.969 292.208,687.065 296.533,688.835 C 298.337,689.878 300.221,690.683 301.044,690.927 C 304.805,692.543 308.647,694.009 312.397,695.092 C 314.784,696.15 317.247,696.942 318.984,697.394 C 322.589,698.548 326.253,699.549 328.583,700.106 C 332.588,701.073 335.234,701.65 337.381,702.024 C 341.048,702.807 344.769,703.437 348.194,703.679 C 350.892,704.28 353.619,704.603 356.05,704.813 C 361.388,705.371 366.798,705.676 372.05,705.75 C 373.147,705.765 374.026,705.772 374.902,705.772 L 375.139,705.772 C 376.045,705.772 376.951,705.765 378.037,705.748 C 383.298,705.673 388.686,705.367 393.997,704.813 C 396.397,704.606 399.097,704.287 401.761,703.693 C 405.231,703.444 408.982,702.809 412.677,702.022 C 414.175,701.777 416.276,701.329 418.37,700.846 C 422.671,699.85 426.916,698.711 431.085,697.384 C 432.737,696.96 435.138,696.189 437.471,695.151 C 441.304,694.042 445.209,692.552 449.039,690.908 C 449.739,690.719 451.548,689.946 453.277,688.942 C 457.704,687.125 462.025,684.988 466.249,682.682 C 465.889,682.993 466.997,682.394 468.033,681.629 C 499.678,664.114 525.822,637.87 543.242,606.167 C 542.991,606.93 543.494,606.016 543.897,605.06 C 546.292,600.665 548.526,596.132 550.468,591.435 C 550.825,591.144 551.528,589.522 552.123,587.865 C 553.787,583.988 555.354,579.876 556.612,575.62 C 557.288,574.342 558.003,572.138 558.609,569.909 C 560.957,562.356 562.764,554.843 564.09,547.313 L 564.148,546.982 L 564.113,547.187 C 564.952,542.4 565.611,537.594 566.06,532.767 C 566.705,526.524 567.023,520.184 567.023,513.772 C 567.023,507.358 566.705,501.018 566.06,494.775 C 565.881,492.638 565.592,490.162 565.041,487.713 C 565.091,486.315 564.625,483.253 564.053,480.019 L 564.067,480.094 C 562.725,472.518 560.904,464.977 558.609,457.635 C 558.274,456.266 557.568,454.052 556.608,451.909 C 555.409,447.815 553.847,443.705 552.125,439.681 C 552.06,439.278 551.367,437.646 550.459,436.086 C 548.538,431.431 546.305,426.904 543.899,422.486 C 544.37,423.143 543.872,422.216 543.226,421.348 C 525.812,389.662 499.678,363.432 468.053,345.925 C 468.505,345.981 467.396,345.369 466.246,344.857 C 462.088,342.585 457.772,340.45 453.29,338.607 C 452.691,338.098 450.881,337.31 449.036,336.632 C 445.424,335.076 441.525,333.582 437.482,332.394 C 435.918,331.611 433.514,330.828 431.083,330.157 C 427.119,328.887 422.82,327.728 418.459,326.716 C 416.539,326.273 414.612,325.86 412.675,325.52 C 409.363,324.802 405.616,324.162 401.766,323.851 C 399.401,323.295 396.701,322.97 393.997,322.73 C 388.749,322.178 383.331,321.869 377.996,321.793 C 376.924,321.777 375.99,321.77 375.059,321.772 C 371.835,321.772 368.63,321.851 364.735,322.044 Z" stroke-width="0.749" stroke-linejoin="miter" fill="#4caf50" fill-rule="nonzero" marker-start="none" marker-end="none"/>
   <path d="M 381.861,421.996 C 325.437,445.371 289.102,502.708 286.269,506.427 C 283.557,510.147 263.47,536.786 263.47,564.339 C 263.47,591.891 277.461,605.307 283.102,611.067 C 287.734,615.795 295.39,617.955 302.733,617.955 C 305.109,617.955 307.246,617.836 309.166,617.739 C 314.806,617.5 317.638,617.163 321.358,608.26 C 325.99,597.1 337.27,569.548 338.614,566.714 C 339.981,563.883 341.35,560.043 339.43,556.323 C 337.63,552.483 336.046,550.779 333.215,547.514 C 330.381,544.251 327.693,541.754 324.862,538.251 C 322.27,535.203 319.343,531.939 322.606,526.299 C 325.871,520.78 337.15,502.371 353.758,487.587 C 375.19,468.508 392.566,462.412 398.781,459.819 C 403.413,457.899 408.934,458.355 412.318,461.956 C 416.614,466.588 421.918,474.268 427.318,481.827 C 431.158,487.25 436.005,487.923 441.095,486.003 C 446.278,484.202 473.711,470.643 479.349,467.835 C 484.99,465.002 488.71,463.659 490.078,461.284 C 491.422,458.908 491.422,447.748 486.79,434.642 C 482.159,421.563 463.774,410.715 449.109,407.547 C 439.077,405.411 425.973,403.707 381.861,421.996 Z" stroke-width="0.749" stroke-linejoin="miter" fill="#fafafa" fill-rule="nonzero" marker-start="none" marker-end="none"/>
  </g>
 </g>
</svg>
